<?xml version="1.0" encoding="UTF-8"?>
<svg version="1.1" xmlns="http://www.w3.org/2000/svg" width="500" height="500">
<path d="M0 0 C165 0 330 0 500 0 C500 165 500 330 500 500 C335 500 170 500 0 500 C0 335 0 170 0 0 Z " fill="#FE914D" transform="translate(0,0)"/>
<path d="M0 0 C6.02829419 3.57104666 10.40234963 8.36977529 12.61328125 15.08984375 C13.45290475 22.71479673 13.41929345 29.82566067 8.61328125 36.08984375 C3.67921539 41.02390961 -1.26364881 43.68026081 -8.19921875 44.58984375 C-13.54830927 44.33017916 -18.09647992 42.21262193 -22.38671875 39.08984375 C-28.13036774 32.3599116 -29.75660022 27.16934278 -29.66015625 18.421875 C-29.12887458 11.94782832 -26.66145698 7.99670577 -21.88671875 3.71484375 C-15.51902437 -1.46614395 -7.88763402 -3.00788662 0 0 Z " fill="#FEFBF9" transform="translate(400.38671875,256.91015625)"/>
<path d="M0 0 C6.02829419 3.57104666 10.40234963 8.36977529 12.61328125 15.08984375 C13.45290475 22.71479673 13.41929345 29.82566067 8.61328125 36.08984375 C3.67921539 41.02390961 -1.26364881 43.68026081 -8.19921875 44.58984375 C-13.54830927 44.33017916 -18.09647992 42.21262193 -22.38671875 39.08984375 C-28.13036774 32.3599116 -29.75660022 27.16934278 -29.66015625 18.421875 C-29.12887458 11.94782832 -26.66145698 7.99670577 -21.88671875 3.71484375 C-15.51902437 -1.46614395 -7.88763402 -3.00788662 0 0 Z " fill="#FEFBF9" transform="translate(119.38671875,256.91015625)"/>
<path d="M0 0 C5.21885554 3.01129037 8.1659127 7.80264069 11.0625 12.9375 C12.94353491 20.64974313 11.72530383 27.66505832 7.6875 34.5 C2.56219564 40.41045736 -2.38974539 43.12037859 -10.1875 43.875 C-15.69693163 43.6962589 -20.06911145 41.59449108 -24.078125 37.8515625 C-29.79024608 31.50168032 -30.71509934 26.11425079 -30.5625 17.6640625 C-30.03013077 10.92626447 -27.41692834 6.98193708 -22.3125 2.5 C-16.06577321 -2.64436324 -7.42271388 -3.25281091 0 0 Z " fill="#FEFBF9" transform="translate(301.3125,198.5)"/>
<path d="M0 0 C4.16625 -0.0825 8.3325 -0.165 12.625 -0.25 C13.92775879 -0.28641602 15.23051758 -0.32283203 16.57275391 -0.36035156 C27.27815601 -0.46311282 27.27815601 -0.46311282 32 4 C35.09354853 8.53720452 35.79096487 12.65564279 35 18 C32.87024986 23.53735036 29.88364196 26.74423869 25 30 C25.7940625 30.85464844 26.588125 31.70929688 27.40625 32.58984375 C28.43762981 33.70560918 29.46887278 34.82150113 30.5 35.9375 C31.02464844 36.50146484 31.54929687 37.06542969 32.08984375 37.64648438 C36 41.88671875 36 41.88671875 36 43 C31.42701974 43.85061795 27.54781754 44.08047501 23 43 C19.37424785 40.25354065 16.79389484 36.59530131 14.14453125 32.94140625 C12.32309029 29.97018421 12.32309029 29.97018421 10 29 C10 33.62 10 38.24 10 43 C6.7 43 3.4 43 0 43 C0 28.81 0 14.62 0 0 Z " fill="#FEFDFC" transform="translate(420,257)"/>
<path d="M0 0 C4.16625 -0.0825 8.3325 -0.165 12.625 -0.25 C13.92775879 -0.28641602 15.23051758 -0.32283203 16.57275391 -0.36035156 C27.27815601 -0.46311282 27.27815601 -0.46311282 32 4 C35.09354853 8.53720452 35.79096487 12.65564279 35 18 C32.87024986 23.53735036 29.88364196 26.74423869 25 30 C25.7940625 30.85464844 26.588125 31.70929688 27.40625 32.58984375 C28.43762981 33.70560918 29.46887278 34.82150113 30.5 35.9375 C31.02464844 36.50146484 31.54929687 37.06542969 32.08984375 37.64648438 C36 41.88671875 36 41.88671875 36 43 C31.42701974 43.85061795 27.54781754 44.08047501 23 43 C19.37424785 40.25354065 16.79389484 36.59530131 14.14453125 32.94140625 C12.32309029 29.97018421 12.32309029 29.97018421 10 29 C10 33.62 10 38.24 10 43 C6.7 43 3.4 43 0 43 C0 28.81 0 14.62 0 0 Z " fill="#FEFDFC" transform="translate(230,198)"/>
<path d="M0 0 C3.3 0 6.6 0 10 0 C10 14.52 10 29.04 10 44 C5.71 44 1.42 44 -3 44 C-9.435 31.625 -9.435 31.625 -16 19 C-16.33 27.25 -16.66 35.5 -17 44 C-20.3 44 -23.6 44 -27 44 C-27 29.81 -27 15.62 -27 1 C-23.04 1 -19.08 1 -15 1 C-13.02041009 4.62476945 -11.04130886 8.2498042 -9.0625 11.875 C-8.49853516 12.90753906 -7.93457031 13.94007813 -7.35351562 15.00390625 C-6.81533203 15.99003906 -6.27714844 16.97617187 -5.72265625 17.9921875 C-4.97640991 19.35899658 -4.97640991 19.35899658 -4.21508789 20.75341797 C-3.45556443 22.15770467 -2.71398838 23.57202324 -2 25 C-1.97494385 24.27820557 -1.9498877 23.55641113 -1.92407227 22.81274414 C-1.80848698 19.562465 -1.68559226 16.31250312 -1.5625 13.0625 C-1.52318359 11.92619141 -1.48386719 10.78988281 -1.44335938 9.61914062 C-1.40146484 8.53955078 -1.35957031 7.45996094 -1.31640625 6.34765625 C-1.27974854 5.34742432 -1.24309082 4.34719238 -1.20532227 3.31665039 C-1 1 -1 1 0 0 Z " fill="#FEF9F6" transform="translate(211,256)"/>
<path d="M0 0 C3.63 -0.0825 7.26 -0.165 11 -0.25 C12.12792969 -0.28641602 13.25585938 -0.32283203 14.41796875 -0.36035156 C20.7331409 -0.42938201 25.8377325 0.11387067 31 4 C34.39096303 7.96778542 35.62313337 11.80710604 35.3203125 17.015625 C34.54814447 21.7993001 32.97780931 25.09373771 29.4375 28.375 C25.29482944 31.13678037 22.23737227 31.12081258 17.375 31.0625 C16.66859375 31.05798828 15.9621875 31.05347656 15.234375 31.04882812 C13.48954725 31.03703875 11.744763 31.01910324 10 31 C10 35.29 10 39.58 10 44 C6.7 44 3.4 44 0 44 C0 29.48 0 14.96 0 0 Z " fill="#FEFAF8" transform="translate(189,197)"/>
<path d="M0 0 C9.9 0 19.8 0 30 0 C30 3.3 30 6.6 30 10 C23.4 10 16.8 10 10 10 C10 12.64 10 15.28 10 18 C16.27 18 22.54 18 29 18 C29 20.97 29 23.94 29 27 C22.73 27 16.46 27 10 27 C10 29.64 10 32.28 10 35 C16.6 35 23.2 35 30 35 C30 37.97 30 40.94 30 44 C20.1 44 10.2 44 0 44 C0 29.48 0 14.96 0 0 Z " fill="#FEF9F7" transform="translate(269,256)"/>
<path d="M0 0 C3.63 0 7.26 0 11 0 C11.01401855 1.3317627 11.01401855 1.3317627 11.02832031 2.69042969 C11.07240681 5.99345919 11.13404746 9.29520007 11.20751953 12.59765625 C11.23569611 14.02526937 11.25692727 15.45303753 11.27099609 16.88085938 C11.29247392 18.93700332 11.33913974 20.99129002 11.390625 23.046875 C11.41157227 24.28276367 11.43251953 25.51865234 11.45410156 26.79199219 C12.09026683 30.53045894 12.99541497 31.7549073 16 34 C18.37462791 34.26978939 18.37462791 34.26978939 20.75 33.75 C21.54921875 33.62109375 22.3484375 33.4921875 23.171875 33.359375 C23.77515625 33.24078125 24.3784375 33.1221875 25 33 C26.08895891 29.41922407 26.20189808 25.99531977 26.31640625 22.265625 C26.35830078 20.97011719 26.40019531 19.67460937 26.44335938 18.33984375 C26.48316671 16.97656524 26.52287906 15.61328394 26.5625 14.25 C26.60572274 12.87108125 26.64933821 11.49217474 26.69335938 10.11328125 C26.79943958 6.7422881 26.9014985 3.37122174 27 0 C30.3 0 33.6 0 37 0 C37.07449251 4.44739413 37.12876257 8.8944519 37.16479492 13.34228516 C37.17982543 14.85341727 37.20025564 16.36450618 37.22631836 17.87548828 C37.26295689 20.05512187 37.27978338 22.23417575 37.29296875 24.4140625 C37.3086792 25.7232666 37.32438965 27.0324707 37.34057617 28.38134766 C36.82755614 33.83223143 35.0698834 36.95389179 31.1875 40.75 C25.83196546 44.53037732 20.55057243 45.98135917 14 45 C8.15984979 43.13115193 4.91716974 40.49774298 2 35 C-0.0034847 30.86057252 -0.23430506 27.53084503 -0.1953125 22.94921875 C-0.1924826 22.29041214 -0.18965271 21.63160553 -0.18673706 20.95283508 C-0.17560924 18.86419938 -0.15051948 16.77600444 -0.125 14.6875 C-0.11496059 13.26498018 -0.10583642 11.8424536 -0.09765625 10.41992188 C-0.07569447 6.94647319 -0.04121646 3.47327967 0 0 Z " fill="#FEF8F4" transform="translate(138,256)"/>
<path d="M0 0 C4.27421981 3.12747791 7.11752936 6.02666044 8.375 11.25 C8.436875 12.11625 8.49875 12.9825 8.5625 13.875 C5.2625 13.875 1.9625 13.875 -1.4375 13.875 C-2.0975 12.555 -2.7575 11.235 -3.4375 9.875 C-5.72455831 8.73147084 -7.03014762 8.77165561 -9.5625 8.8125 C-10.84125 8.833125 -12.12 8.85375 -13.4375 8.875 C-14.0975 10.855 -14.7575 12.835 -15.4375 14.875 C-14.19613281 15.10574219 -12.95476562 15.33648437 -11.67578125 15.57421875 C-10.03365354 15.90264429 -8.39173708 16.23212731 -6.75 16.5625 C-5.93337891 16.71138672 -5.11675781 16.86027344 -4.27539062 17.01367188 C1.09679983 18.12290958 3.96546239 19.48335053 7.5625 23.875 C7.8925 24.205 8.2225 24.535 8.5625 24.875 C9.15651484 29.50052541 8.97359347 33.02119049 6.9375 37.25 C3.31594568 41.25277057 0.05600132 42.70788443 -5.3125 43.30859375 C-6.68739484 43.32564874 -8.06257286 43.32671447 -9.4375 43.3125 C-10.46617187 43.3424707 -10.46617187 43.3424707 -11.515625 43.37304688 C-16.63107305 43.36816572 -19.50387601 42.06886784 -23.4375 38.875 C-26.36707849 35.06654796 -26.4375 33.93117203 -26.4375 28.875 C-23.1375 28.875 -19.8375 28.875 -16.4375 28.875 C-15.7775 30.195 -15.1175 31.515 -14.4375 32.875 C-11.41881566 34.38434217 -8.76452771 34.05010672 -5.4375 33.875 C-4.4475 33.215 -3.4575 32.555 -2.4375 31.875 C-2.4375 30.555 -2.4375 29.235 -2.4375 27.875 C-6.10151252 26.52510065 -9.66726795 25.61925652 -13.5 24.9375 C-17.35444399 24.18979583 -20.32769108 23.40171975 -23.4375 20.875 C-26.1675606 16.43139072 -26.09537813 11.9406616 -25.4375 6.875 C-20.29777296 -2.41604503 -9.26417729 -3.03191257 0 0 Z " fill="#FEFBF9" transform="translate(253.4375,257.125)"/>
<path d="M0 0 C5.6542691 3.44007633 8.94827627 7.84982261 11.38671875 13.9765625 C11.38671875 14.6365625 11.38671875 15.2965625 11.38671875 15.9765625 C8.00600969 16.26689057 4.75754657 16.42176617 1.38671875 15.9765625 C-1.11328125 13.5390625 -1.11328125 13.5390625 -2.61328125 10.9765625 C-6.12436607 9.22102009 -9.79079175 9.31092209 -13.61328125 9.9765625 C-17.07883656 12.66413601 -18.27733725 14.12287153 -19.05078125 18.390625 C-19.33086301 24.18481642 -18.42025946 27.60973455 -14.61328125 31.9765625 C-11.4209464 33.57272993 -8.07866628 33.49122364 -4.61328125 32.9765625 C-2.18208502 31.10641156 -0.97258952 29.69517905 0.38671875 26.9765625 C3.68671875 26.9765625 6.98671875 26.9765625 10.38671875 26.9765625 C10.25036159 32.43084888 7.99956408 35.37223099 4.4140625 39.20703125 C0.28524405 42.81079764 -3.81945362 43.78773854 -9.17578125 44.3515625 C-15.92932674 43.61481208 -20.84977207 40.74007168 -25.61328125 35.9765625 C-30.02570903 30.34832644 -30.28203358 24.2916353 -30.05859375 17.3203125 C-29.07600345 9.94226602 -24.80615034 5.70910313 -19.26171875 1.10546875 C-13.96946994 -2.51884383 -5.77593816 -2.2620266 0 0 Z " fill="#FEFBF9" transform="translate(74.61328125,257.0234375)"/>
<path d="M0 0 C3.3 0 6.6 0 10 0 C10 11.22 10 22.44 10 34 C16.6 34 23.2 34 30 34 C30 37.3 30 40.6 30 44 C20.1 44 10.2 44 0 44 C0 29.48 0 14.96 0 0 Z " fill="#FEFAF8" transform="translate(306,256)"/>
<path d="M0 0 C3.3 0 6.6 0 10 0 C10 11.22 10 22.44 10 34 C16.27 34 22.54 34 29 34 C29 37.3 29 40.6 29 44 C19.43 44 9.86 44 0 44 C0 29.48 0 14.96 0 0 Z " fill="#FEFAF7" transform="translate(341,256)"/>
<path d="M0 0 C3.44186104 0.0383037 4.63382591 0.2432899 7.6875 2.0625 C10.74843595 5.40170285 11.64052383 7.13015734 12.0625 11.6875 C11.66928539 16.24878943 10.33950759 19.3976546 7.4140625 22.921875 C4.80696304 25.10057784 2.35208625 25.23342484 -0.95703125 25.51953125 C-4.94372652 25.1595741 -6.57576996 23.18729729 -9.25 20.3125 C-11.34432921 16.12384157 -10.8141284 10.86192254 -10.25 6.3125 C-8.82788284 3.85844945 -7.61616723 2.98613048 -5.25 1.3125 C-3.69014791 -0.24735209 -2.16093902 0.06797656 0 0 Z " fill="#FC9250" transform="translate(291.25,206.6875)"/>
<path d="M0 0 C3.0159732 1.76148435 5.41370439 3.82740878 7 7 C7.5917588 12.68998842 7.25047199 17.12429202 4 22 C2.375 23.9375 2.375 23.9375 0 25 C-4.95680166 25.30689391 -8.10764023 24.72504232 -12 21.5625 C-15.24868775 17.40011882 -15.37812146 14.16434306 -15 9 C-14.17213456 5.68853824 -13.18967547 4.20641154 -10.875 1.6875 C-7.20794771 -0.46490026 -4.10076789 -0.95310816 0 0 Z " fill="#FC914F" transform="translate(396,266)"/>
<path d="M0 0 C3.0159732 1.76148435 5.41370439 3.82740878 7 7 C7.5917588 12.68998842 7.25047199 17.12429202 4 22 C2.375 23.9375 2.375 23.9375 0 25 C-4.95680166 25.30689391 -8.10764023 24.72504232 -12 21.5625 C-15.24868775 17.40011882 -15.37812146 14.16434306 -15 9 C-14.17213456 5.68853824 -13.18967547 4.20641154 -10.875 1.6875 C-7.20794771 -0.46490026 -4.10076789 -0.95310816 0 0 Z " fill="#FC914F" transform="translate(115,266)"/>
<path d="M0 0 C1.93681161 -0.08107583 3.8745934 -0.13922475 5.8125 -0.1875 C6.89144531 -0.22230469 7.97039062 -0.25710937 9.08203125 -0.29296875 C12 0 12 0 13.90234375 1.28515625 C15 3 15 3 14.75 6.625 C14 10 14 10 13 11 C10.81360547 11.07258946 8.62499611 11.08373783 6.4375 11.0625 C4.64119141 11.04896484 4.64119141 11.04896484 2.80859375 11.03515625 C1.88175781 11.02355469 0.95492187 11.01195312 0 11 C0 7.37 0 3.74 0 0 Z " fill="#FA9557" transform="translate(199,207)"/>
<path d="M0 0 C1.93681161 -0.08107583 3.8745934 -0.13922475 5.8125 -0.1875 C6.89144531 -0.22230469 7.97039062 -0.25710938 9.08203125 -0.29296875 C12 0 12 0 13.86328125 1.35546875 C15.48797756 3.70597441 15.4189057 5.20729532 15 8 C13.86328125 9.64453125 13.86328125 9.64453125 12 11 C9.08203125 11.29296875 9.08203125 11.29296875 5.8125 11.1875 C4.72582031 11.16042969 3.63914062 11.13335937 2.51953125 11.10546875 C1.27236328 11.05326172 1.27236328 11.05326172 0 11 C0 7.37 0 3.74 0 0 Z " fill="#FA904E" transform="translate(430,266)"/>
<path d="M0 0 C1.93681161 -0.08107583 3.8745934 -0.13922475 5.8125 -0.1875 C6.89144531 -0.22230469 7.97039062 -0.25710937 9.08203125 -0.29296875 C12 0 12 0 13.86328125 1.35546875 C15.48797756 3.70597441 15.4189057 5.20729532 15 8 C13.86328125 9.64453125 13.86328125 9.64453125 12 11 C9.08203125 11.29296875 9.08203125 11.29296875 5.8125 11.1875 C4.72582031 11.16042969 3.63914063 11.13335937 2.51953125 11.10546875 C1.27236328 11.05326172 1.27236328 11.05326172 0 11 C0 7.37 0 3.74 0 0 Z " fill="#FA904E" transform="translate(240,207)"/>
</svg>
